<svg class="logo-svg" width="90" height="28" viewBox="0 0 90 28" fill="none" xmlns="http://www.w3.org/2000/svg">
  <path d="M85.5196 16.079C87.7264 16.079 89.5154 14.29 89.5154 12.0832C89.5154 9.87638 87.7264 8.0874 85.5196 8.0874C83.3128 8.0874 81.5238 9.87638 81.5238 12.0832C81.5238 14.29 83.3128 16.079 85.5196 16.079Z" fill="#6FD8B2"/>
  <path d="M57.4004 4.19043C55.8392 4.18982 54.3129 4.6522 53.0146 5.5191C51.7162 6.386 50.7041 7.61847 50.1062 9.06063C49.5084 10.5028 49.3516 12.0899 49.6558 13.6211C49.96 15.1524 50.7115 16.559 51.8152 17.6631C52.9189 18.7673 54.3253 19.5193 55.8564 19.8241C57.3875 20.1289 58.9746 19.9728 60.417 19.3755C61.8594 18.7782 63.0923 17.7665 63.9597 16.4685C64.8271 15.1705 65.2901 13.6444 65.2901 12.0832C65.2876 9.99119 64.4557 7.98553 62.9767 6.50597C61.4978 5.0264 59.4924 4.1937 57.4004 4.19043ZM57.4004 16.2334C56.5782 16.2334 55.7745 15.9895 55.0909 15.5327C54.4074 15.0759 53.8746 14.4265 53.5601 13.6669C53.2456 12.9072 53.1635 12.0714 53.3241 11.265C53.4848 10.4587 53.8809 9.71809 54.4625 9.13694C55.0441 8.55578 55.785 8.16017 56.5914 8.00015C57.3979 7.84012 58.2337 7.92287 58.9931 8.23793C59.7525 8.55299 60.4015 9.0862 60.8578 9.77012C61.3141 10.454 61.5574 11.2579 61.5568 12.0801C61.556 13.1822 61.1178 14.2389 60.3385 15.0182C59.5592 15.7975 58.5025 16.2357 57.4004 16.2365V16.2334Z" fill="white"/>
  <path d="M7.76616 0H0V19.5868H7.76616C13.1824 19.5868 17.2677 15.3779 17.2677 9.79494C17.2677 4.21195 13.1824 0 7.76616 0ZM7.58397 15.8195H3.94021V3.77655H7.58397C11.0147 3.77655 13.3214 6.19749 13.3214 9.8042C13.3214 13.4109 11.0147 15.8195 7.58397 15.8195Z" fill="white"/>
  <path d="M47.2779 16.091C45.984 16.1497 45.0638 16.091 44.4987 15.5537C44.1899 15.2665 44.017 14.9361 44.0263 14.1116V8.13337H47.2624V4.42784H44.0386L44.0602 0.0429688H40.1602L40.1416 4.41858H38.0727V8.1241H40.1416V14.3C40.1416 16.3658 40.5585 17.6967 41.4509 18.5119C42.5224 19.4785 44.3783 19.8119 47.2779 19.5556V16.091Z" fill="white"/>
  <path d="M72.965 19.9852C75.9325 19.9852 79.1007 18.75 79.1007 15.2329C79.1007 11.8022 76.1085 11.0148 73.9223 10.4404C72.4956 10.0668 71.3716 9.77032 71.3716 8.82232C71.3716 8.20473 71.8225 7.54083 73.0916 7.54083C73.5425 7.52959 73.9883 7.63796 74.3837 7.85491C74.7791 8.07187 75.11 8.38967 75.3427 8.776L78.653 6.99426C77.4178 5.17856 75.4539 4.18115 73.0947 4.18115C70.2291 4.18115 67.3357 5.65101 67.3357 8.93349C67.3357 12.1079 70.3094 12.9478 72.4833 13.5407C73.9284 13.9452 75.0679 14.2602 75.0679 15.1896C75.0679 15.7022 74.7931 16.5638 72.9681 16.5638C71.6279 16.5638 70.6367 15.9832 70.0994 14.8809L66.7428 16.7923C67.9039 18.9168 69.9975 19.9852 72.965 19.9852Z" fill="white"/>
  <path d="M31.756 19.6422L35.2021 19.6237V4.43416H31.7498V6.12943C31.4048 5.6503 30.9548 5.25635 30.4343 4.97763C29.6375 4.54065 28.7514 4.2914 27.8436 4.24888C27.6181 4.24888 27.3989 4.22418 27.1766 4.22418C26.0806 4.22007 24.9959 4.44626 23.9929 4.88808C22.7872 5.41476 21.7275 6.22649 20.905 7.25344C19.8453 8.61177 19.2587 10.2792 19.2342 12.0018C19.2098 13.7243 19.749 15.4077 20.7697 16.7955C21.7903 18.1834 23.2366 19.1996 24.8882 19.6895C26.5398 20.1795 28.3063 20.1162 29.9187 19.5095C30.2873 19.3645 30.6335 19.168 30.9469 18.9258C31.3066 18.6387 31.5872 18.2646 31.7622 17.8389L31.756 19.6422ZM27.1241 16.2857C26.2863 16.2863 25.4671 16.0385 24.7701 15.5736C24.0731 15.1087 23.5296 14.4476 23.2083 13.6739C22.887 12.9001 22.8023 12.0485 22.9649 11.2266C23.1275 10.4048 23.5302 9.64958 24.122 9.05652C24.7137 8.46346 25.468 8.05917 26.2895 7.89475C27.111 7.73033 27.9629 7.81317 28.7373 8.13279C29.5117 8.45241 30.174 8.99447 30.6404 9.69044C31.1068 10.3864 31.3564 11.205 31.3576 12.0428C31.3576 13.1665 30.9119 14.2443 30.1182 15.0397C29.3245 15.8351 28.2477 16.2832 27.1241 16.2857Z" fill="white"/>
  <path d="M0.865035 23.228H0V27.8217H0.865035V23.228Z" fill="white" fill-opacity="0.7"/>
  <path d="M8.75253 27.8212V23.2275H7.8875L7.87936 26.3569L5.23273 23.2275H4.30533V27.8212H5.17036L5.1785 24.6349L7.82513 27.8212H8.75253Z" fill="white" fill-opacity="0.7"/>
  <path d="M63.2715 27.8212V23.2275H62.4064L62.3983 26.3569L59.7517 23.2275H58.8242V27.8212H59.6893L59.6974 24.6349L62.3441 27.8212H63.2715Z" fill="white" fill-opacity="0.7"/>
  <path d="M16.1841 23.2275H11.9674V24.0166H13.6432V27.8212H14.5082V24.0166H16.1841V23.2275Z" fill="white" fill-opacity="0.7"/>
  <path d="M26.2864 23.2275V27.8212H29.6462V27.0321H27.1514V23.2275H26.2864Z" fill="white" fill-opacity="0.7"/>
  <path d="M32.8585 23.2275V27.8212H36.2183V27.0321H33.7235V23.2275H32.8585Z" fill="white" fill-opacity="0.7"/>
  <path d="M40.2993 23.2275H39.4343V27.8212H40.2993V23.2275Z" fill="white" fill-opacity="0.7"/>
  <path d="M47.3982 27.8913H48.1873V25.261H46.0993V26.0935H47.3711V26.5084L47.3548 26.5301C47.1873 26.7349 46.9736 26.8971 46.7314 27.0036C46.4892 27.1101 46.2252 27.1579 45.961 27.1429C45.7452 27.1545 45.5293 27.1202 45.3277 27.0423C45.1261 26.9643 44.9433 26.8445 44.7913 26.6908C44.6394 26.5371 44.5218 26.3529 44.4462 26.1503C44.3706 25.9478 44.3389 25.7316 44.353 25.5159C44.353 24.5343 44.9468 23.8889 45.8634 23.8889C46.1288 23.88 46.3917 23.9432 46.6242 24.0716C46.8567 24.2 47.0501 24.3889 47.184 24.6183L48.068 24.3743C47.8735 23.9684 47.5644 23.6283 47.1789 23.3961C46.7934 23.1638 46.3484 23.0495 45.8986 23.0672C45.5745 23.056 45.2515 23.1113 44.9495 23.2298C44.6476 23.3483 44.3731 23.5274 44.1432 23.7561C43.9132 23.9848 43.7325 24.2583 43.6124 24.5595C43.4922 24.8608 43.4351 25.1835 43.4446 25.5078C43.4353 25.8317 43.492 26.154 43.6111 26.4554C43.7302 26.7567 43.9093 27.0307 44.1376 27.2607C44.3658 27.4907 44.6384 27.672 44.9388 27.7934C45.2392 27.9149 45.5611 27.974 45.8851 27.9673C46.3855 27.9752 46.8736 27.8116 47.2681 27.5036L47.4172 27.3761V27.5714C47.3982 27.6609 47.3982 27.7395 47.3982 27.8913Z" fill="white" fill-opacity="0.7"/>
  <path d="M68.8765 23.0511C68.55 23.0398 68.2248 23.0957 67.9209 23.2154C67.6171 23.3351 67.3411 23.5161 67.1101 23.747C66.8792 23.978 66.6982 24.254 66.5785 24.5578C66.4588 24.8617 66.4029 25.187 66.4142 25.5134C66.4093 26.0786 66.5987 26.6283 66.9508 27.0705C67.3029 27.5127 67.7963 27.8204 68.3483 27.9421C68.9003 28.0638 69.4773 27.9921 69.9828 27.7391C70.4882 27.486 70.8913 27.0669 71.1245 26.552L70.2323 26.3187C70.1046 26.5793 69.9037 26.7971 69.6543 26.9454C69.4048 27.0937 69.1176 27.1662 68.8276 27.154C67.9246 27.154 67.3172 26.4977 67.3172 25.5269C67.3172 24.5561 67.9274 23.8999 68.8331 23.8999C69.0993 23.8898 69.3634 23.9512 69.598 24.0775C69.8326 24.2039 70.0291 24.3906 70.1672 24.6185L71.0648 24.3717C70.871 23.9603 70.5598 23.6153 70.1704 23.3803C69.781 23.1453 69.3308 23.0308 68.8765 23.0511Z" fill="white" fill-opacity="0.7"/>
  <path d="M22.2855 25.923V25.1257H20.2652V24.0166H22.9525V23.2275H19.3975V27.8212H22.9824V27.0321H20.2652V25.923H22.2855Z" fill="white" fill-opacity="0.7"/>
  <path d="M54.8214 25.923V25.1257H52.8012V24.0166H55.4885V23.2275H51.9335V27.8212H55.5184V27.0321H52.8012V25.923H54.8214Z" fill="white" fill-opacity="0.7"/>
  <path d="M77.5937 25.923V25.1257H75.5735V24.0166H78.2635V23.2275H74.7085V27.8212H78.2933V27.0321H75.5735V25.923H77.5937Z" fill="white" fill-opacity="0.7"/>
</svg>
