<svg width="142" height="28" viewBox="0 0 142 28" fill="none" xmlns="http://www.w3.org/2000/svg">
  <g opacity="0.6" clip-path="url(#clip0_2_8663)">
    <path d="M141.913 3.16295C141.825 2.75961 140.64 0.76416 138.622 0.76416C136.648 0.76416 123.927 0.806617 123.927 0.806617L112.368 25.1554C112.368 25.1554 123.707 25.1766 126.756 25.1766C129.805 25.1554 134.433 21.2282 135.464 18.978C135.968 17.8529 141.847 5.28577 141.847 5.28577C141.847 5.28577 142.154 4.26681 141.913 3.16295ZM132.437 8.87333C132.02 9.78615 129.564 14.9871 129.059 16.0697C128.401 17.492 127.392 19.3388 126.076 19.3388C124.76 19.3388 123.005 19.3388 123.005 19.3388L129.059 6.53823C129.059 6.53823 130.638 6.53823 131.691 6.53823C132.722 6.53823 132.876 7.98175 132.437 8.87333Z" fill="#0F273F"/>
    <path d="M109.779 25.113H91.4644L103.002 0.827881H121.338L118.575 6.5595H108.112L106.489 10.1258L115.109 10.1683L112.521 15.815H103.725L102.015 19.4238L112.521 19.4875L109.779 25.113Z" fill="#0F273F"/>
    <path d="M97.9117 0.742676H80.2768L68.7835 25.0914H76.7455L80.3207 17.5554H80.9568L82.207 25.0914L90.1251 25.0277L89.0504 17.4917C91.0464 17.5979 92.6256 16.8124 93.7223 15.008L99.2935 3.16269C99.798 1.84654 99.3593 1.03987 97.9117 0.742676ZM89.3794 7.47202L88.1072 10.2741C87.7344 11.1657 87.0105 11.7389 86.5719 11.7601H83.0186L85.4971 6.5592L88.7872 6.60166C89.3136 6.68657 89.4891 6.98377 89.3794 7.47202Z" fill="#0F273F"/>
    <path d="M57.6193 0.742676H65.5374L61.0848 10.0619H65.4058L69.7926 0.848817H77.6011L66.2612 25.0277H58.365L62.7518 15.9421H58.2554L53.9783 25.0914H46.104L57.6193 0.742676Z" fill="#0F273F"/>
    <path d="M45.7325 8.55493L49.8341 11.5906L55.0544 0.806641C55.0544 0.806641 40.907 0.806641 39.6787 0.806641C38.4723 0.806641 38.2091 0.976466 37.9898 1.06138C36.8054 1.57086 35.8622 2.41998 35.2481 3.67245L33.5592 7.4723C33.274 8.53371 33.3179 9.53143 33.7346 10.4442L38.2969 18.6808C38.4285 18.978 38.5381 19.5087 38.1214 19.5299H33.3837L34.3488 17.5557L30.3129 14.4776L25.1804 25.1129H41.6308C43.0346 24.8157 44.1971 23.7968 45.0525 21.865L46.5879 18.511C47.0924 17.301 46.8292 16.0485 45.9079 14.7748L41.6308 7.1751C41.5431 7.00528 41.7186 6.58071 41.9818 6.58071H46.8292L45.7325 8.55493Z" fill="#0F273F"/>
    <path d="M14.2351 5.6467L10.8353 0H0L17.591 28L33.2079 0.0424564H23.4693L20.0914 5.66793H22.3726L17.5471 15.1994L11.932 5.66793L14.2351 5.6467Z" fill="#0F273F"/>
  </g>
  <defs>
    <clipPath id="clip0_2_8663">
      <rect width="142" height="28" fill="white"/>
    </clipPath>
  </defs>
</svg>
