<svg class="chevron-svg" width="8" height="5" viewBox="0 0 8 5" fill="none" xmlns="http://www.w3.org/2000/svg">
  <path d="M4.40922 4.81636L7.83838 1.07326C7.94302 0.953036 8.00094 0.793223 7.99999 0.627365C7.99904 0.461506 7.93929 0.302497 7.83329 0.183706C7.72448 0.0660214 7.57752 0 7.42437 0C7.27122 0 7.12426 0.0660214 7.01546 0.183706L4.00062 3.47507L0.985157 0.183706C0.876414 0.0663738 0.729562 0.000810146 0.576687 0.00134087C0.423812 0.00187206 0.277345 0.0684543 0.169287 0.18654C0.0612302 0.304625 0.000368595 0.464613 1.43051e-06 0.631546C-0.000366211 0.798478 0.0597911 0.958783 0.167327 1.07743L3.59139 4.81566C3.70004 4.93361 3.84698 4.99987 4.00018 5C4.15338 5.00013 4.30041 4.93412 4.40922 4.81636Z" fill="white" fill-opacity="0.7"/>
</svg>
