<svg width="142" height="40" viewBox="0 0 142 40" fill="none" xmlns="http://www.w3.org/2000/svg">
  <g opacity="0.7" clip-path="url(#clip0_2_8637)">
    <path d="M64.3723 29.5727V28.8889H59.9685H59.2346V29.5727V33.4188V34.1026V38.9317V39.5727V39.6154H64.3723V38.9317H59.9685V34.1026H64.3291V33.4188H59.9685V29.5727H64.3723Z" fill="#0F273F"/>
    <path d="M81.0814 29.5727V28.8889H76.6345H75.9437V29.5727V33.4188V34.1026V38.9317V39.5727V39.6154H81.0814V38.9317H76.6345V34.1026H80.9951V33.4188H76.6345V29.5727H81.0814Z" fill="#0F273F"/>
    <path d="M107.633 29.5727V28.8889H103.186H102.495V29.5727V33.4188V34.1026V38.9317V39.5727V39.6154H107.633V38.9317H103.186V34.1026H107.547V33.4188H103.186V29.5727H107.633Z" fill="#0F273F"/>
    <path d="M141.611 29.5727V28.8889H137.208H136.474V29.5727V33.4188V34.1026V38.9317V39.5727V39.6154H141.611V38.9317H137.208V34.1026H141.568V33.4188H137.208V29.5727H141.611Z" fill="#0F273F"/>
    <path d="M132.026 28.8889H131.292V39.5727V39.6154H134.789V38.9317H132.026V28.8889Z" fill="#0F273F"/>
    <path d="M126.63 28.8889H125.896V39.5727V39.6154H129.35V38.9317H126.63V28.8889Z" fill="#0F273F"/>
    <path d="M84.2763 28.8889H83.5424V39.5727V39.6154H87.0395V38.9317H84.2763V28.8889Z" fill="#0F273F"/>
    <path d="M115.534 28.8889H109.274V29.5299H112.037V39.6154H112.728V29.5299H115.534V28.8889Z" fill="#0F273F"/>
    <path d="M92.9969 4.23071H91.3994V19.3589H92.9969V4.23071Z" fill="#0F273F"/>
    <path d="M98.2649 0.512695H96.6675V19.3588H98.2649V0.512695Z" fill="#0F273F"/>
    <path d="M108.151 3.84619C112.469 3.84619 115.966 7.35046 115.966 11.6667C115.966 16.0257 112.469 19.4872 108.151 19.4445C103.877 19.4445 100.38 15.8975 100.38 11.6667C100.38 7.30773 103.791 3.84619 108.151 3.84619ZM108.151 18.0342C111.648 18.0342 114.455 15.2137 114.455 11.6667C114.455 8.1197 111.648 5.29918 108.108 5.29918C104.568 5.29918 101.762 8.16243 101.805 11.7522C101.848 15.0855 104.827 18.0342 108.151 18.0342Z" fill="#0F273F"/>
    <path d="M134.186 19.6155C130.041 19.6583 126.242 16.1112 126.371 11.5813C126.501 7.47877 129.652 3.9745 134.229 4.01723C138.503 4.05997 141.957 7.3933 142 11.795C142 16.2822 138.417 19.5728 134.186 19.6155ZM140.532 11.795C140.532 8.248 137.726 5.38475 134.229 5.38475C130.43 5.42749 127.839 8.20527 127.839 11.8377C127.839 15.2993 130.775 18.1198 134.099 18.1625C137.726 18.2053 140.532 15.3848 140.532 11.795Z" fill="#0F273F"/>
    <path d="M0 10.8121C0 10.7266 0 10.6411 0 10.5557C0 7.35054 0 4.14541 0 0.940279C0 0.726604 0 0.555664 0.302219 0.555664C3.62663 0.555664 6.95105 0.555664 10.3186 0.555664C10.3186 0.555664 10.3618 0.555664 10.4482 0.598399C5.78534 2.82062 2.33141 6.23942 0 10.8121Z" fill="#0F273F"/>
    <path d="M0.0431742 29.2307C2.33141 33.8888 5.78534 37.3076 10.4482 39.5726C10.3618 39.6581 10.2755 39.6153 10.1891 39.6153C6.90787 39.6153 3.62663 39.6153 0.345394 39.6153C0.129523 39.6153 0 39.6153 0 39.3162C0 36.0256 0 32.735 0 29.4017C0 29.4017 0 29.3589 0.0431742 29.2307Z" fill="#0F273F"/>
    <path d="M29.0566 39.6156C33.6763 37.3506 37.1302 33.9318 39.4185 29.3164C39.5048 29.4019 39.4616 29.5301 39.4616 29.6156C39.4616 32.8207 39.4616 36.0685 39.4616 39.2737C39.4616 39.4446 39.5048 39.6156 39.2026 39.6156C35.835 39.6156 32.4242 39.6156 29.0566 39.6156Z" fill="#0F273F"/>
    <path d="M39.4615 10.7693C37.1301 6.23937 33.7194 2.8633 29.0997 0.598341C29.2293 0.512871 29.3588 0.555606 29.4883 0.555606C32.6832 0.555606 35.8781 0.555606 39.073 0.555606C39.3752 0.555606 39.5047 0.598341 39.5047 0.940221C39.5047 4.10261 39.5047 7.26501 39.5047 10.4701C39.4615 10.5556 39.4615 10.6411 39.4615 10.7693Z" fill="#0F273F"/>
    <path d="M119.506 5.81184C119.636 5.68363 119.722 5.51269 119.852 5.42722C121.104 4.0597 122.658 3.67509 124.428 4.27338C125.162 4.52979 125.853 4.87167 126.544 5.25628C126.76 5.38449 126.76 5.46996 126.63 5.6409C126.371 6.02551 126.155 6.41013 125.939 6.79474C125.853 6.96568 125.767 7.00842 125.594 6.88021C124.989 6.4956 124.299 6.15372 123.651 5.81184C122.226 5.12808 120.931 5.81184 120.24 6.79474C119.679 7.60671 119.463 8.46141 119.463 9.44432C119.463 12.6067 119.463 19.3588 119.463 19.3588H117.866V4.27338H119.463C119.463 4.27338 119.463 5.42722 119.463 5.81184C119.463 5.81184 119.463 5.81184 119.506 5.81184Z" fill="#0F273F"/>
    <path d="M19.731 23.2906C18.0472 23.2906 16.5361 21.7949 16.5361 20.1282C16.5361 18.2906 17.9609 16.8804 19.7742 16.8804C21.5443 16.8804 22.9259 18.3334 22.9259 20.171C22.9259 21.8804 21.5012 23.2906 19.731 23.2906Z" fill="#0F273F"/>
    <path d="M89.8451 28.6326C91.3994 31.8804 92.9105 35.1283 94.4648 38.4189C96.019 35.1283 97.5733 31.8805 99.1708 28.5471C99.2571 29.3163 99.3435 29.9574 99.4298 30.5984C99.6457 32.436 99.8616 34.2736 100.034 36.154C100.164 37.2651 100.423 39.6155 100.423 39.6155H99.6889C99.6889 39.6155 99.2571 35.5557 99.0412 33.7608C98.9549 33.0343 98.8685 32.2651 98.7822 31.5386C98.7822 31.4104 98.7822 31.3249 98.6959 31.154C97.3143 34.1027 95.8895 37.0514 94.5079 40.0428C93.0832 37.0514 91.7016 34.1454 90.32 31.1967C90.2769 31.1967 90.2769 31.1967 90.2337 31.1967C90.1905 31.6668 90.1042 32.0941 90.061 32.5642C89.802 34.8292 89.327 39.3163 89.327 39.3163L89.2839 39.6155H88.5931L88.6363 39.3591C88.6363 39.3591 88.8521 37.3505 88.9385 36.3249C89.1112 34.701 89.2839 33.077 89.4566 31.4958C89.5429 30.5557 89.6724 29.6155 89.7588 28.6753C89.802 28.6326 89.8451 28.6326 89.8451 28.6326Z" fill="#0F273F"/>
    <path d="M66.4451 34.2308C66.4451 32.5641 66.4451 29.2308 66.4451 29.2308V28.8889C66.4451 28.8889 69.0788 28.8034 70.1581 29.0599C72.2305 29.5299 73.8279 31.3248 74.087 33.4616C74.346 35.6411 73.6552 37.3932 71.8419 38.718C70.9353 39.359 69.9422 39.6154 68.8629 39.6154C68.1721 39.6154 66.4451 39.6154 66.4451 39.6154V39.3163C66.4451 39.3163 66.4451 35.8975 66.4451 34.2308ZM68.3448 29.5727C67.9994 29.5727 67.1359 29.5727 67.1359 29.5727V29.8291C67.1359 29.8291 67.1359 31.2393 67.1359 31.9658C67.1359 34.1881 67.1359 38.9744 67.1359 38.9744H67.4813C67.4813 38.9744 68.5175 38.9744 68.9924 38.9317C70.8921 38.7607 72.3168 37.906 73.0076 36.1111C73.6984 34.2735 73.4825 32.4787 72.101 30.9829C71.108 29.8718 69.7696 29.4872 68.3448 29.5727Z" fill="#0F273F"/>
    <path d="M119.635 28.5896C121.147 32.3075 124.126 39.6152 124.126 39.6152H123.348L123.089 39.017L122.053 36.4101L121.924 36.111H117.304L117.175 36.4528L116.052 39.2306L115.879 39.658C115.879 39.658 115.189 39.658 115.059 39.658C116.613 35.94 118.124 32.3075 119.635 28.5896ZM119.635 30.3845L117.606 35.4699H121.665L119.635 30.3845Z" fill="#0F273F"/>
    <path d="M93.2563 1.06838C93.2563 1.75214 92.7382 2.26496 92.0906 2.26496C91.4861 2.26496 91.0544 1.75214 91.0544 1.11111C91.0544 0.470085 91.5293 0 92.1769 0C92.7814 0 93.2995 0.470085 93.2563 1.06838Z" fill="#0F273F"/>
    <path d="M76.3753 19.2736H77.9296C77.9296 16.154 77.9296 12.6069 77.9296 9.48729C77.9296 9.18814 77.9728 8.889 78.0159 8.63259C78.5772 6.49584 80.9518 5.00011 83.1537 5.42746C84.8375 5.76934 86.1327 6.88045 86.0463 8.93173C86.0032 10.1283 86.0463 11.3249 86.0463 12.5215C86.0463 14.6582 86.0463 18.9317 86.0463 18.9317V19.2736H87.6438V19.0172C87.6438 19.0172 87.6438 12.0087 87.6438 8.50438C87.6438 7.73515 87.4711 7.05139 87.0825 6.41037C86.0032 4.44455 83.7149 3.76079 81.6426 4.05994C80.0883 4.27361 78.9226 5.12831 78.0159 6.36763C77.9296 6.23943 77.9728 6.06849 77.9728 5.98302C77.9728 4.27361 77.9728 0.555664 77.9728 0.555664H76.3753C76.3753 0.555664 76.3753 12.9488 76.3753 18.9317C76.3753 18.9745 76.3753 19.1454 76.3753 19.2736Z" fill="#0F273F"/>
    <path d="M72.6617 7.05127C70.7621 4.44443 67.5672 3.37606 64.545 4.27349C63.0771 4.70084 61.8682 5.55554 60.832 6.75213C60.832 5.94016 60.832 4.27349 60.832 4.27349H59.2346V25.3419H60.7888C60.7888 24.9573 60.7888 19.5726 60.7888 17.0085C60.7888 16.8803 60.7888 16.7949 60.7888 16.5812C60.9184 16.7521 61.0047 16.8376 61.091 16.9658C63.7247 20.0855 68.2148 20.4701 71.3665 17.8632C74.5182 15.2991 75.0795 10.3846 72.6617 7.05127ZM70.9348 16.3675C69.6827 17.8205 68.0421 18.2906 66.1424 18.1624C62.7748 17.906 60.6593 15.2991 60.573 12.0085C60.573 11.8803 60.573 11.7949 60.573 11.6667C60.573 9.99999 61.0047 8.46153 62.1704 7.22221C63.3793 5.89742 64.9336 5.34187 66.7037 5.3846C69.51 5.3846 71.8414 7.35042 72.4027 10.1709C72.8776 12.4359 72.489 14.5726 70.9348 16.3675Z" fill="#0F273F"/>
  </g>
  <defs>
    <clipPath id="clip0_2_8637">
      <rect width="142" height="40" fill="white"/>
    </clipPath>
  </defs>
</svg>
