<svg class="conversion-labs-logo-svg" width="175" height="37" viewBox="0 0 175 37" fill="none" xmlns="http://www.w3.org/2000/svg">
  <g opacity="0.7" clip-path="url(#clip0_2_8671)">
    <path d="M42.8367 9.65768C43.0843 6.33395 45.2509 4.07632 47.7889 3.38649C50.3888 2.69666 53.6078 3.51191 54.9078 5.26785C54.4744 5.76954 53.9173 6.45937 53.4221 6.96107C53.3602 7.02378 53.2983 6.89836 53.2364 6.83564C52.9888 6.64751 52.7412 6.39666 52.4316 6.20853C50.8841 5.14242 49.2746 4.95429 47.6032 5.83225C45.9318 6.71022 45.2509 8.27802 45.2509 10.0967C45.2509 12.1662 46.3651 13.9221 48.1603 14.5492C49.8936 15.1763 51.4412 14.7373 52.8031 13.6085C52.9888 13.4204 53.1745 13.295 53.4221 13.1068C53.9173 13.6085 54.4125 14.1102 54.9078 14.6119C53.7935 16.3678 50.5746 17.4339 47.9746 16.8068C45.2509 16.1797 43.0224 13.8594 42.7748 10.4729C42.8367 10.3475 42.8367 9.97124 42.8367 9.65768Z" fill="#0F273F"/>
    <path d="M165.776 7.40003C165.776 10.5356 165.776 13.6085 165.776 16.7441C164.971 16.7441 164.229 16.7441 163.486 16.7441C163.486 12.2916 163.486 3.38647 163.486 3.38647H165.652L165.838 3.63732C165.838 3.63732 169.676 8.65427 171.595 11.1627C171.905 11.6017 172.276 12.0407 172.709 12.4797C172.709 9.46953 172.709 6.45936 172.709 3.38647C173.514 3.38647 174.257 3.38647 175.062 3.38647C175.062 3.5119 175.062 3.63732 175.062 3.76275C175.062 7.96444 175.062 16.4305 175.062 16.4305V16.8068H173.143L172.957 16.556C172.957 16.556 168.438 10.6611 166.148 7.65088C166.086 7.52546 165.962 7.46275 165.9 7.33732C165.838 7.40003 165.776 7.40003 165.776 7.40003Z" fill="#0F273F"/>
    <path d="M75.8936 7.40003C75.8936 10.5356 75.8936 13.6085 75.8936 16.7441C75.0889 16.7441 74.346 16.7441 73.6032 16.7441C73.6032 12.2916 73.6032 3.38647 73.6032 3.38647H75.7698L75.9555 3.63732C75.9555 3.63732 79.7935 8.65427 81.7125 11.1627C82.022 11.6017 82.3934 12.0407 82.8267 12.4797C82.8267 9.46953 82.8267 6.45936 82.8267 3.38647C83.6315 3.38647 84.3743 3.38647 85.1791 3.38647C85.1791 3.5119 85.1791 3.63732 85.1791 3.76275C85.1791 7.96444 85.1791 16.4305 85.1791 16.4305V16.8068H83.2601L83.0744 16.556C83.0744 16.556 78.5554 10.6611 76.265 7.65088C76.2031 7.52546 76.0793 7.46275 76.0174 7.33732C75.9555 7.40003 75.8936 7.40003 75.8936 7.40003Z" fill="#0F273F"/>
    <path d="M153.705 3.19827C157.296 3.01014 160.577 5.89488 160.638 10.0966C160.638 14.0474 157.605 17.0576 153.643 17.0576C149.744 17.0576 146.71 14.0474 146.71 10.0966C146.71 5.83217 150.301 2.94742 153.705 3.19827ZM158.162 10.0966C158.162 10.0339 158.162 9.97115 158.162 9.90844C158.1 6.71014 155.129 4.57793 152.22 5.51861C150.177 6.20844 149.001 8.34064 149.248 10.7237C149.558 13.5457 152.22 15.4271 154.881 14.6745C156.862 14.1101 158.162 12.2915 158.162 10.0966Z" fill="#0F273F"/>
    <path d="M70.7559 10.0965C70.7559 14.0474 67.7226 17.0575 63.7608 17.0575C59.799 17.0575 56.8277 14.0474 56.8277 10.1592C56.8277 6.14567 59.8609 3.1355 63.8227 3.1355C67.7845 3.1355 70.7559 6.08296 70.7559 10.0965ZM68.2797 10.0965C68.2178 9.65753 68.1559 9.21855 68.094 8.77957C67.4131 5.89482 64.3179 4.45245 61.7799 5.7694C60.0466 6.71007 59.3038 8.27787 59.3657 10.2219C59.4276 13.1694 61.8418 15.1762 64.6894 14.6745C66.7322 14.4236 68.2797 12.4169 68.2797 10.0965Z" fill="#0F273F"/>
    <path d="M117.801 12.1034C117.801 13.6712 117.801 15.1763 117.801 16.7441C116.997 16.7441 116.254 16.7441 115.511 16.7441C115.511 12.2916 115.511 7.83902 115.511 3.38647C115.635 3.38647 115.759 3.38647 115.882 3.38647C117.74 3.38647 119.659 3.38647 121.516 3.38647C122.692 3.38647 123.806 3.63732 124.797 4.32715C125.725 5.01698 126.22 5.95766 126.344 7.14919C126.53 9.40681 125.539 10.9746 123.373 11.6644C123.311 11.6644 123.311 11.7272 123.187 11.7272C124.363 13.4204 125.539 15.0509 126.777 16.8068C125.849 16.8068 124.982 16.8068 124.116 16.8068C123.992 16.8068 123.93 16.6814 123.868 16.556C122.939 15.1763 121.949 13.8594 121.02 12.4797C120.835 12.2288 120.649 12.1034 120.339 12.1034C119.659 12.1034 118.978 12.1034 118.297 12.1034C118.111 12.1034 117.987 12.1034 117.801 12.1034ZM117.801 10.0339C117.925 10.0339 118.049 10.0339 118.173 10.0339C119.101 10.0339 120.092 10.0339 121.02 10.0339C121.33 10.0339 121.701 10.0339 122.011 9.97122C123.558 9.72037 124.363 8.278 123.806 6.83563C123.435 6.02037 122.754 5.6441 121.949 5.58139C120.649 5.51868 119.349 5.51868 118.049 5.51868C117.801 5.51868 117.863 5.70681 117.863 5.83224C117.863 7.14919 117.863 8.46614 117.863 9.72037C117.801 9.8458 117.801 9.90851 117.801 10.0339Z" fill="#0F273F"/>
    <path d="M112.664 14.6119C112.664 15.3644 112.664 16.0543 112.664 16.7441C109.383 16.7441 106.102 16.7441 102.759 16.7441C102.759 12.2916 102.759 7.83902 102.759 3.38647C106.04 3.38647 112.54 3.38647 112.54 3.38647V5.51868H105.111V8.96783H111.735V11.1H105.111C105.111 11.1 105.111 13.4831 105.111 14.6746C107.649 14.6119 110.126 14.6119 112.664 14.6119Z" fill="#0F273F"/>
    <path d="M128.263 14.8629C128.758 14.2984 129.129 13.7968 129.563 13.2951C129.749 13.1069 129.81 13.2323 129.996 13.2951C130.615 13.6713 131.234 14.173 131.915 14.4866C132.844 14.9256 133.896 14.9883 134.948 14.7374C135.815 14.5493 136.248 13.9849 136.31 13.2323C136.31 12.6679 136.125 12.1662 135.629 11.9154C135.01 11.6018 134.329 11.4137 133.71 11.2256C132.906 10.9747 132.101 10.7866 131.358 10.5357C129.625 9.90862 128.882 8.84251 128.882 7.14929C128.882 5.51878 129.81 4.20184 131.358 3.57472C133.029 2.9476 134.763 3.07302 136.372 3.76285C136.991 4.0137 137.61 4.45268 138.291 4.82895C137.796 5.51878 137.424 6.08319 136.991 6.6476C136.434 6.33404 135.939 6.02048 135.382 5.76963C134.453 5.33065 133.525 5.20523 132.534 5.39336C131.853 5.51879 131.358 5.89506 131.234 6.6476C131.11 7.33743 131.358 7.96455 132.101 8.27811C132.72 8.52895 133.463 8.71709 134.144 8.96794C134.886 9.21879 135.691 9.40692 136.372 9.72048C137.982 10.4103 138.663 11.4764 138.601 13.1696C138.539 14.7374 137.672 16.0544 136.125 16.6188C133.958 17.3713 131.853 17.0578 129.872 15.9917C129.315 15.6781 128.82 15.2391 128.263 14.8629Z" fill="#0F273F"/>
    <path d="M94.0312 13.6085C94.2788 12.9187 97.993 3.38647 97.993 3.38647C97.993 3.38647 99.7263 3.38647 100.531 3.38647C100.16 4.26444 99.8501 5.07969 99.5406 5.89495C98.1168 9.46952 95.0217 16.9322 95.0217 16.9322H94.6502H93.2265H92.9789L87.4695 3.44919H90.0694C90.0075 3.38647 93.9074 13.4204 94.0312 13.6085Z" fill="#0F273F"/>
    <path d="M143.739 16.7441C142.996 16.7441 142.253 16.7441 141.448 16.7441C141.448 12.2916 141.448 7.83902 141.448 3.38647C142.191 3.38647 142.934 3.38647 143.739 3.38647C143.739 7.83902 143.739 12.2916 143.739 16.7441Z" fill="#0F273F"/>
    <path d="M79.1735 26.4642C79.6068 26.6523 80.0401 26.8405 80.3496 27.0286C81.5258 27.6557 82.021 28.6591 81.9591 29.9761C81.8972 31.3557 81.1544 32.2964 79.9163 32.7981C79.1735 33.1117 78.4306 33.2998 77.564 33.2998C75.645 33.2998 73.6641 33.2998 71.7451 33.2998C71.4975 33.2998 71.3737 33.2371 71.3737 32.9235C71.3737 28.7218 71.3737 24.4574 71.3737 20.2557C71.3737 20.193 71.3737 20.1303 71.3737 20.0049C71.4975 20.0049 71.5594 20.0049 71.6832 20.0049C73.6022 20.0049 75.5212 20.0049 77.4402 20.0676C78.4925 20.0676 79.483 20.3812 80.2877 21.1337C81.6496 22.3879 81.402 24.8964 79.8544 25.8998C79.7306 26.1506 79.483 26.2761 79.1735 26.4642ZM72.8594 27.2167C72.8594 27.2795 72.7975 27.3422 72.7975 27.4049C72.7975 28.91 72.7975 30.3523 72.7975 31.8574C72.7975 32.171 72.9832 32.171 73.1689 32.171C74.5307 32.171 75.8926 32.171 77.3164 32.171C78.0592 32.171 78.7402 32.0456 79.3592 31.732C80.1639 31.293 80.5972 30.6032 80.5972 29.7252C80.5972 28.8473 80.2258 28.2201 79.4211 27.7812C78.7402 27.4049 77.9973 27.3422 77.2545 27.2795C76.2021 27.2795 75.0879 27.2795 74.0355 27.2795C73.6022 27.2167 73.2308 27.2167 72.8594 27.2167ZM75.1498 26.0252C75.7069 26.0252 76.3259 26.0879 76.8831 26.0252C77.3783 25.9625 77.9354 25.8998 78.3687 25.7117C79.1735 25.3981 79.6687 24.8337 79.7925 24.0184C79.9163 23.0778 79.6687 22.3252 78.864 21.8235C78.4925 21.5727 77.9973 21.3845 77.564 21.3845C76.0783 21.3218 74.5307 21.3218 73.0451 21.2591C72.7975 21.2591 72.7356 21.3845 72.7356 21.5727C72.7356 22.9523 72.7356 24.332 72.7356 25.7117C72.7356 25.9625 72.7975 26.0252 73.0451 26.0252C73.7879 25.9625 74.4688 26.0252 75.1498 26.0252Z" fill="#0F273F"/>
    <path d="M67.6593 33.2998H66.1736L66.0498 33.0489L64.7498 30.1015L64.626 29.7879H57.3215L57.1358 30.1642L55.8977 33.0489L55.7739 33.3625H54.3501L60.2928 19.9421H61.6547L67.6593 33.2998ZM61.0976 21.6981C61.0357 21.6981 61.0357 21.6981 60.9738 21.6981C59.9833 23.9557 58.9929 26.2133 57.9405 28.5337C60.0452 28.5337 62.0261 28.5337 64.1308 28.5337C63.0785 26.2133 62.088 23.9557 61.0976 21.6981Z" fill="#0F273F"/>
    <path d="M85.1787 31.4812C85.4882 31.1049 85.7977 30.7914 85.9834 30.4778C86.7262 30.9168 87.4691 31.4185 88.2119 31.7948C89.3881 32.3592 90.6261 32.4219 91.8642 32.1083C93.1642 31.7948 93.8451 30.6032 93.5356 29.2863C93.3499 28.5337 92.7928 28.1575 92.1737 27.9066C91.369 27.5931 90.5642 27.4049 89.7595 27.2168C88.7691 26.966 87.7786 26.7151 86.912 26.0253C86.1691 25.4609 85.7977 24.6456 85.7358 23.7049C85.5501 21.3846 87.4072 20.1304 89.0786 19.8795C91.1214 19.566 92.9785 20.0676 94.5879 21.3846C94.3403 21.7609 94.0308 22.0744 93.7832 22.4507C93.4118 22.1999 93.1023 21.949 92.7309 21.7609C91.6166 21.1337 90.3785 20.8829 89.1405 21.1337C88.3976 21.2592 87.7786 21.5727 87.3453 22.2626C86.7263 23.3914 87.0977 24.6456 88.2119 25.1473C89.0786 25.5236 90.069 25.7117 90.9357 26.0253C91.7404 26.2761 92.5451 26.527 93.288 26.9032C94.8356 27.7185 95.1451 29.2236 94.7737 30.666C94.4022 32.1083 93.3499 32.9863 91.9261 33.2998C89.45 33.8015 87.2215 33.2371 85.2406 31.5439C85.3025 31.5439 85.2406 31.5439 85.1787 31.4812Z" fill="#0F273F"/>
    <path d="M42.8366 20.0676C43.2699 20.0676 44.1985 20.0676 44.1985 20.0676V32.0456C44.1985 32.0456 51.503 32.0456 51.6888 32.0456C51.6888 32.4846 51.6888 32.8608 51.6888 33.2371C48.7793 33.2371 45.808 33.2371 42.8985 33.2371C42.8366 28.91 42.8366 24.5202 42.8366 20.0676Z" fill="#0F273F"/>
    <path d="M27.2374 18.5C27.2374 23.5169 23.2137 27.5932 18.2614 27.5932C13.3092 27.5932 9.22356 23.5797 9.28546 18.5C9.28546 13.3576 13.3711 9.40678 18.1995 9.40678C23.1518 9.40678 27.2374 13.4831 27.2374 18.5ZM24.5755 18.5C24.5755 14.9254 21.728 12.0407 18.1995 12.0407C14.671 12.0407 11.8235 14.9254 11.8854 18.5C11.8854 22.0746 14.7329 24.8966 18.2614 24.8966C21.728 24.8966 24.5755 22.0119 24.5755 18.5ZM19.128 37C20.3042 36.9373 21.4804 36.7492 22.5946 36.4983C24.885 35.9339 26.9897 34.9305 28.9087 33.4881C29.5278 33.0492 29.6516 32.2339 29.2183 31.6068C28.7849 30.9797 27.9802 30.8542 27.3612 31.2932C26.7421 31.7322 26.0612 32.1712 25.3803 32.5475C22.4708 34.0525 19.3757 34.617 16.0948 34.178C14.1139 33.9271 12.3187 33.3 10.5854 32.3593C10.0283 32.0458 9.47117 31.6695 8.91404 31.2932C8.29501 30.917 7.49027 31.0424 7.11885 31.6695C6.74744 32.2966 6.87124 33.0492 7.49027 33.4881C7.92359 33.8017 8.35692 34.1153 8.79024 34.3661C11.7616 36.122 14.8567 36.9373 18.3233 37C18.509 37 18.8185 37 19.128 37ZM36.4609 17.9983C36.4609 17.8102 36.4609 17.6847 36.399 17.4966C36.3371 15.9288 36.0276 14.4237 35.5943 12.9814C34.9752 11.0373 34.1086 9.28136 32.9324 7.58814C32.4991 6.96102 31.6944 6.89831 31.1372 7.27458C30.5182 7.71356 30.3944 8.52881 30.8896 9.21864C31.6944 10.3475 32.3753 11.6017 32.8705 12.9186C33.7991 15.4271 34.0467 17.9356 33.6753 20.5695C33.4277 22.5763 32.8086 24.4576 31.8801 26.1508C31.5706 26.778 31.1372 27.3424 30.7658 27.9068C30.3944 28.4712 30.5801 29.2864 31.1372 29.6627C31.6944 30.039 32.4991 29.9763 32.8705 29.4119C32.9943 29.2237 33.1181 29.0356 33.242 28.8475C35.3467 25.7119 36.3371 22.2627 36.399 18.5C36.4609 18.3746 36.5228 18.1864 36.4609 17.9983ZM16.9614 0.0627119C15.5996 0.188136 14.2996 0.376271 12.9996 0.752542C11.0187 1.37966 9.16166 2.25763 7.42837 3.51186C6.87124 4.01356 6.80934 5.01695 7.36647 5.58136C7.86169 6.08305 8.54262 6.08305 9.22356 5.58136C12.1949 3.51186 15.4758 2.50847 19.0661 2.69661C20.7375 2.82203 22.2851 3.13559 23.7708 3.7C25.0707 4.20169 26.2469 4.89153 27.3612 5.64407C27.9802 6.08305 28.7849 5.95763 29.2183 5.33051C29.6516 4.70339 29.4659 3.88814 28.8468 3.44915C25.7517 1.19153 22.1613 0.0627119 18.509 0C17.8281 0 17.3948 0 16.9614 0.0627119ZM0.247612 21.6983C0.742837 24.3949 1.73329 26.8407 3.28086 29.0983C3.40467 29.2864 3.52848 29.4746 3.71418 29.6C4.27131 29.9763 4.95225 29.9763 5.44747 29.4746C5.88079 29.0356 6.0046 28.2831 5.63318 27.7814C5.19986 27.1542 4.82844 26.5271 4.45702 25.8373C2.97135 22.9525 2.41422 19.9424 2.72374 16.7441C2.90944 14.6746 3.52848 12.6678 4.51892 10.8492C4.82844 10.2847 5.19986 9.72034 5.57128 9.15593C5.88079 8.71695 5.9427 8.21525 5.69508 7.77627C5.26176 6.83559 4.0237 6.77288 3.40467 7.58814C1.17616 10.9119 0 14.5492 0 18.939C0 19.5661 0.0619031 20.6322 0.247612 21.6983ZM22.4089 5.33051C20.1804 4.64068 17.9519 4.45254 15.7234 4.89153C13.2473 5.39322 11.0807 6.45932 9.22356 8.15254C7.05695 10.1593 5.69508 12.6051 5.01415 15.4898C4.89034 16.0542 5.13796 16.6186 5.63318 16.9322C6.12841 17.2458 6.68553 17.1831 7.11885 16.8068C7.42837 16.5559 7.55218 16.1169 7.67598 15.7407C8.29501 13.3576 9.53307 11.3508 11.4521 9.78305C12.9996 8.52881 14.7329 7.77627 16.6519 7.46271C17.7043 7.27458 18.7566 7.27458 19.809 7.46271C20.4899 7.58814 21.1089 7.77627 21.7899 7.9017C22.5946 8.08983 23.3375 7.46271 23.3375 6.64746C23.3375 6.02034 23.0279 5.51864 22.4089 5.33051ZM31.8182 16.6814C31.5087 14.4237 30.7039 12.3542 29.404 10.4729C28.8468 9.65763 28.2278 8.9678 27.485 8.34068C27.1135 7.96441 26.6183 7.90169 26.1231 8.15254C25.6279 8.34068 25.3803 8.71695 25.3184 9.21864C25.2565 9.72034 25.5041 10.1593 25.8755 10.4729C26.804 11.3508 27.5469 12.4169 28.1659 13.5458C29.0944 15.4271 29.4659 17.3712 29.2802 19.4407C29.0944 21.322 28.5373 23.0153 27.5469 24.5831C27.0516 25.3983 26.3707 26.0881 25.6898 26.778C25.0088 27.4678 25.3184 28.722 26.2469 28.9729C26.804 29.0983 27.2374 28.9729 27.6088 28.5339C30.4563 25.7746 31.8182 22.3881 31.8801 18.4373C31.8801 17.8729 31.8801 17.2458 31.8182 16.6814ZM22.347 31.6695C23.0279 31.4814 23.4613 30.8542 23.3375 30.2271C23.2137 29.3492 22.4708 28.9102 21.6042 29.161C20.7994 29.4119 19.9947 29.6 19.128 29.6627C16.7757 29.7881 14.6091 29.2864 12.5663 28.0322C10.9568 27.0288 9.65688 25.7119 8.72833 24.0186C8.23311 23.078 7.86169 22.1373 7.61408 21.1339C7.55218 20.7576 7.42837 20.4441 7.11885 20.2559C6.62363 19.7542 6.0665 19.7542 5.57128 20.0678C5.07605 20.3814 4.89034 20.9458 5.01415 21.5102C5.63318 24.3949 7.05695 26.9034 9.28546 28.8475C11.8854 31.1678 14.9186 32.2966 18.3852 32.2966C19.6852 32.2966 21.047 32.0458 22.347 31.6695Z" fill="#0F273F"/>
  </g>
  <defs>
    <clipPath id="clip0_2_8671">
      <rect width="175" height="37" fill="white"/>
    </clipPath>
  </defs>
</svg>
